# xmcd
#
# Track frame offsets: 
#        150
#        35473
#        54033
#        69766
#        100659
#        117314
#        163140
#        196821
#        226062
#        271543
#        294452
#        307221
#        317163
#        337056
#
# Disc length: 4777 seconds
#
# Revision: 0
# Processed by: cddbd v1.5.2PL0 Copyright (c) Steve Scherf et al.
# Submitted via: ExactAudioCopy v0.95b4
#
DISCID=ba12a70e
DTITLE=Eric Clapton - Live Irving Plaza 11_27_94 Disc 2
DYEAR=1994
DGENRE=Rock
TTITLE0=Every Day I Have The Blues
TTITLE1=Someday After A While
TTITLE2=Tore Down
TTITLE3=Have You Ever Loved A Woman?
TTITLE4=Crosscut Saw
TTITLE5=Drifting Blues
TTITLE6=Five Long Years
TTITLE7=Crossroads
TTITLE8=Groaning The Blues
TTITLE9=Ain't Nobody's Business
TTITLE10=Vararadio 1991 02 Only A Hobo
TTITLE11=Vararadio 1991 03 Deja Vu
TTITLE12=Vararadio 1991 05 Hear THe Train Commin'
TTITLE13=Vararadio 1991 06 The Love That We Once Knew
EXTD=
EXTT0=
EXTT1=
EXTT2=
EXTT3=
EXTT4=
EXTT5=
EXTT6=
EXTT7=
EXTT8=
EXTT9=
EXTT10=
EXTT11=
EXTT12=
EXTT13=
PLAYORDER=
